<?xml version="1.0" standalone="no"?>
<!DOCTYPE svg PUBLIC "-//W3C//DTD SVG 20010904//EN"
 "http://www.w3.org/TR/2001/REC-SVG-20010904/DTD/svg10.dtd">
<svg version="1.0" xmlns="http://www.w3.org/2000/svg"
 width="512.000000pt" height="512.000000pt" viewBox="0 0 512.000000 512.000000"
 preserveAspectRatio="xMidYMid meet">
<metadata>
Created by potrace 1.15, written by Peter Selinger 2001-2017
</metadata>
<g transform="translate(0.000000,512.000000) scale(0.100000,-0.100000)"
fill="#000000" stroke="none">
<path d="M203 4958 c-174 -172 -196 -198 -191 -231 3 -19 32 5 192 163 103
102 192 193 197 203 8 14 5 17 -17 17 -21 0 -60 -33 -181 -152z"/>
<path d="M303 4858 c-140 -139 -264 -265 -275 -281 -10 -15 -18 -37 -16 -50 3
-18 49 23 292 263 158 157 292 293 297 303 8 14 5 17 -17 17 -22 0 -75 -47
-281 -252z"/>
<path d="M402 4758 c-194 -194 -362 -365 -373 -381 -11 -15 -19 -37 -17 -50 4
-18 67 40 392 363 213 212 392 393 397 403 8 14 5 17 -18 17 -22 0 -89 -62
-381 -352z"/>
<path d="M502 4658 c-249 -249 -462 -465 -473 -481 -11 -15 -19 -37 -17 -50 4
-18 84 57 492 463 268 267 492 493 497 503 8 14 5 17 -18 17 -22 0 -104 -76
-481 -452z"/>
<path d="M602 4558 c-304 -304 -562 -565 -573 -581 -11 -15 -19 -37 -17 -50 4
-18 101 75 592 563 323 322 592 593 597 603 8 14 5 17 -18 17 -23 0 -118 -91
-581 -552z"/>
<path d="M702 4458 c-359 -359 -662 -665 -673 -681 -11 -15 -19 -37 -17 -50 4
-18 118 92 692 663 378 377 692 693 697 703 8 14 5 17 -18 17 -23 0 -133 -106
-681 -652z"/>
<path d="M1221 4781 c-430 -422 -476 -468 -877 -877 -266 -272 -334 -347 -334
-368 0 -14 3 -26 7 -26 4 0 94 87 201 193 191 190 193 191 157 127 -21 -36
-53 -96 -72 -135 -28 -55 -64 -99 -164 -201 -99 -101 -129 -138 -129 -158 0
-14 3 -26 6 -26 4 0 49 41 100 92 l94 92 -34 -97 c-30 -86 -40 -104 -100 -167
-45 -48 -66 -78 -66 -95 0 -14 2 -25 5 -25 3 0 26 19 52 43 42 38 46 40 40 17
-3 -14 -12 -50 -18 -80 -8 -36 -23 -68 -45 -94 -19 -22 -34 -51 -34 -64 0 -24
1 -24 25 -8 l26 17 -7 -68 c-4 -41 -14 -79 -25 -95 -24 -34 -26 -70 -3 -61 15
6 16 -2 12 -66 -3 -40 -11 -78 -17 -84 -13 -13 -15 -61 -2 -53 24 15 30 -109
6 -140 -22 -29 -20 -63 4 -57 17 4 19 -2 23 -49 3 -44 0 -58 -20 -85 -13 -18
-22 -42 -20 -54 l3 -21 25 20 25 20 11 -51 c10 -52 10 -52 -28 -96 -21 -24
-38 -54 -38 -67 0 -13 2 -24 5 -24 3 0 23 16 44 36 l40 35 10 -38 c16 -58 15
-61 -44 -125 -35 -38 -55 -68 -55 -84 0 -13 3 -24 6 -24 3 0 32 25 64 56 32
30 60 52 63 47 2 -4 10 -25 17 -46 l12 -38 -81 -84 c-58 -60 -81 -92 -81 -110
0 -14 3 -25 6 -25 4 0 44 37 90 82 46 45 85 80 87 77 2 -2 10 -22 19 -44 l15
-40 -109 -112 c-81 -83 -108 -118 -108 -137 0 -14 3 -26 7 -26 3 0 57 50 119
112 l113 111 20 -44 20 -44 -140 -141 c-108 -110 -139 -148 -139 -168 0 -39
15 -28 170 128 l135 136 21 -43 22 -42 -174 -176 c-137 -139 -174 -182 -174
-203 0 -14 3 -26 7 -26 4 0 88 81 188 180 l181 180 23 -41 23 -41 -211 -212
c-168 -170 -211 -218 -211 -239 0 -15 3 -27 7 -27 4 0 105 98 225 217 l218
218 25 -30 c13 -17 24 -34 25 -40 0 -5 -112 -122 -250 -260 -201 -203 -250
-257 -250 -278 0 -15 3 -27 7 -27 4 0 125 117 268 261 l262 260 28 -36 27 -37
-296 -297 c-240 -242 -296 -302 -296 -324 0 -15 3 -27 7 -27 4 0 145 138 313
306 l307 305 28 -36 27 -37 -341 -342 c-279 -280 -341 -347 -341 -369 0 -15 3
-27 7 -27 4 0 166 159 360 352 l353 353 32 -33 33 -32 -368 -368 c-202 -202
-367 -371 -367 -375 0 -4 12 -7 27 -7 22 0 92 65 384 356 l357 356 36 -28 36
-29 -320 -320 c-176 -177 -320 -324 -320 -328 0 -4 12 -7 27 -7 22 0 84 58
338 310 l311 310 34 -29 35 -30 -272 -273 c-150 -151 -273 -277 -273 -281 0
-4 12 -7 27 -7 21 0 78 51 294 266 l267 266 37 -27 36 -28 -230 -232 c-127
-127 -231 -234 -231 -238 0 -4 12 -7 27 -7 21 0 71 45 252 225 l227 225 38
-26 38 -26 -191 -192 c-105 -106 -191 -195 -191 -199 0 -4 12 -7 26 -7 21 0
66 39 215 186 l187 186 41 -23 41 -23 -155 -156 c-85 -86 -155 -159 -155 -163
0 -4 12 -7 26 -7 21 0 60 34 179 151 l153 151 42 -22 42 -22 -121 -122 c-66
-68 -121 -126 -121 -129 0 -4 12 -7 26 -7 19 0 55 29 147 119 l122 118 44 -19
44 -19 -91 -93 c-51 -51 -92 -96 -92 -100 0 -3 11 -6 25 -6 19 0 51 25 119 90
l93 90 47 -16 47 -16 -65 -68 c-37 -38 -66 -71 -66 -74 0 -3 11 -6 25 -6 17 0
47 21 94 65 l69 66 46 -12 c25 -6 46 -14 46 -18 0 -4 -14 -20 -31 -37 -17 -16
-35 -37 -40 -46 -8 -15 -5 -18 15 -18 14 0 44 18 74 45 l50 45 51 -11 51 -11
-26 -31 -27 -32 23 -3 c13 -2 36 8 59 26 33 26 42 29 89 24 57 -5 57 -5 42
-33 -9 -16 -7 -19 11 -19 11 0 33 9 48 19 23 16 38 19 85 14 42 -4 56 -9 52
-19 -7 -19 33 -18 58 1 13 10 43 15 84 15 53 0 63 -3 58 -15 -8 -22 30 -19 62
4 17 11 53 20 94 24 l68 6 -16 -24 c-16 -24 -15 -25 8 -25 13 0 41 14 62 31
25 21 59 36 99 45 90 19 93 18 53 -26 -20 -22 -36 -42 -36 -45 0 -3 11 -5 25
-5 16 0 46 20 89 60 55 52 75 64 133 80 37 10 77 22 88 26 11 4 -15 -29 -57
-73 -43 -45 -78 -83 -78 -87 0 -3 12 -6 26 -6 19 0 54 27 137 109 104 102 120
113 236 170 l125 60 -162 -163 c-89 -89 -162 -165 -162 -169 0 -4 12 -7 27 -7
21 0 71 45 252 224 149 147 267 254 346 314 201 151 419 374 535 547 18 28
138 156 267 286 186 188 233 241 233 263 0 14 -3 26 -7 26 -4 0 -79 -72 -167
-160 l-161 -159 60 124 c56 115 68 131 168 234 80 82 107 116 107 135 0 14 -3
26 -6 26 -4 0 -42 -35 -87 -77 -44 -43 -77 -70 -74 -60 4 10 16 50 28 90 18
60 32 83 81 135 38 41 58 71 58 87 0 14 -2 25 -5 25 -3 0 -23 -16 -45 -36 -22
-20 -40 -35 -40 -33 0 2 7 37 15 78 11 52 25 85 45 110 17 19 30 46 30 59 0
23 -1 24 -24 8 l-25 -15 6 57 c3 31 14 75 24 98 23 49 25 76 4 68 -12 -5 -15
5 -15 58 0 41 5 71 15 84 19 25 20 65 1 58 -23 -9 -26 110 -4 139 10 12 18 32
18 45 0 19 -3 21 -20 12 -20 -11 -22 -6 -32 75 -2 11 10 37 25 57 17 22 27 46
25 59 l-3 22 -30 -25 -30 -26 -12 51 -11 51 44 49 c26 29 44 59 44 73 0 13 -2
24 -5 24 -3 0 -25 -18 -49 -40 -48 -44 -49 -44 -65 14 l-10 39 64 69 c45 47
65 76 65 94 0 33 -18 23 -90 -51 l-55 -55 -16 47 -16 48 88 92 c65 67 89 99
89 118 0 14 -3 25 -6 25 -4 0 -48 -41 -99 -91 -51 -50 -95 -87 -98 -82 -2 4
-10 25 -17 46 l-12 38 116 119 c88 90 116 125 116 145 0 37 -16 26 -145 -104
l-110 -111 -21 43 -22 42 149 151 c117 119 149 157 149 178 0 22 -3 25 -17 17
-10 -5 -81 -73 -158 -150 -77 -78 -143 -141 -146 -141 -4 0 -17 16 -29 36
l-21 37 185 187 c147 148 186 193 186 214 0 14 -3 26 -7 26 -4 0 -93 -86 -198
-190 l-192 -191 -25 38 -26 38 224 226 c179 181 224 231 224 252 0 15 -3 27
-7 27 -4 0 -111 -104 -238 -231 l-232 -230 -25 38 -26 38 264 266 c213 214
264 271 264 292 0 15 -3 27 -7 27 -4 0 -130 -122 -280 -272 l-273 -272 -29 34
-29 35 309 311 c251 252 309 315 309 337 0 15 -3 27 -7 27 -4 0 -151 -143
-326 -317 l-318 -318 -30 35 -29 34 355 356 c291 292 355 361 355 383 0 15 -3
27 -7 27 -4 0 -172 -164 -373 -365 l-366 -365 -32 33 -32 33 341 339 c187 187
345 348 350 358 8 14 5 17 -18 17 -22 0 -87 -60 -370 -342 l-343 -342 -32 32
-33 32 303 303 c166 166 302 306 302 310 0 4 -12 7 -27 7 -22 0 -82 -56 -324
-296 l-297 -296 -33 31 -34 30 258 258 c141 143 257 262 257 266 0 4 -12 7
-27 7 -21 0 -75 -49 -279 -251 l-252 -252 -34 24 c-18 12 -35 24 -37 26 -3 2
93 102 212 221 119 120 217 221 217 225 0 4 -12 7 -27 7 -21 0 -69 -43 -239
-211 l-212 -211 -34 23 c-18 12 -35 24 -37 26 -3 2 75 84 172 181 97 98 177
181 177 185 0 4 -12 7 -26 7 -21 0 -64 -37 -200 -172 l-173 -171 -41 18 c-22
10 -40 21 -40 24 0 4 59 65 131 136 151 150 162 165 123 165 -20 0 -58 -31
-168 -139 l-141 -139 -42 22 -43 21 101 100 c119 119 131 135 94 135 -20 0
-53 -26 -135 -106 l-109 -106 -38 12 c-21 7 -42 15 -46 17 -5 3 28 42 72 88
45 45 81 85 81 89 0 3 -11 6 -25 6 -18 0 -50 -23 -109 -80 l-83 -80 -47 16
-47 16 56 58 c30 32 55 61 55 64 0 3 -11 6 -24 6 -16 0 -46 -20 -84 -55 l-60
-55 -51 12 -50 11 34 39 c19 21 35 40 35 43 0 18 -53 -1 -88 -31 -40 -34 -45
-35 -92 -29 -28 4 -50 9 -50 11 0 3 7 16 16 29 16 24 15 25 -7 25 -13 0 -35
-9 -49 -20 -26 -21 -56 -24 -109 -14 -22 5 -30 11 -27 20 7 18 -28 18 -57 0
-24 -15 -151 -11 -141 5 7 12 -39 12 -51 0 -6 -5 -43 -11 -83 -13 -56 -3 -71
-1 -68 9 8 19 -21 16 -68 -6 -23 -10 -67 -21 -98 -24 l-57 -6 15 25 c16 23 15
24 -8 24 -13 0 -42 -15 -64 -33 -28 -25 -56 -37 -103 -46 -34 -7 -70 -15 -80
-18 -9 -4 3 14 27 40 23 26 42 49 42 52 0 3 -11 5 -25 5 -17 0 -47 -21 -93
-65 -61 -57 -80 -68 -166 -98 l-97 -34 91 92 c49 51 90 95 90 99 0 3 -12 6
-26 6 -20 0 -56 -30 -152 -124 -110 -108 -140 -131 -227 -177 -55 -28 -118
-63 -140 -77 -25 -15 32 49 153 170 105 107 192 197 192 201 0 4 -12 7 -26 7
-21 0 -94 -66 -363 -329z m369 -933 c48 -24 120 -95 505 -503 248 -261 452
-475 455 -474 3 0 207 214 453 475 491 520 494 522 613 532 124 10 242 -58
302 -172 22 -43 27 -64 27 -131 0 -134 5 -127 -510 -670 -250 -264 -455 -483
-455 -487 0 -3 189 -206 420 -450 469 -495 473 -499 474 -621 1 -175 -134
-311 -309 -311 -133 -1 -131 -2 -602 494 l-414 438 -88 -92 c-49 -50 -231
-242 -405 -426 -174 -184 -334 -347 -355 -363 -60 -42 -150 -61 -223 -48 -201
35 -316 255 -228 436 20 40 434 489 823 892 l49 51 -461 487 c-262 276 -470
504 -483 528 -15 30 -23 66 -26 125 -4 77 -2 87 27 147 58 116 158 177 286
172 52 -2 84 -9 125 -29z"/>
<path d="M4396 750 c-394 -393 -722 -723 -727 -732 -8 -15 -5 -18 18 -18 23 0
137 110 711 683 376 375 692 694 703 710 11 15 19 37 17 50 -4 18 -124 -97
-722 -693z"/>
<path d="M4496 650 c-339 -338 -622 -623 -627 -632 -8 -15 -5 -18 18 -18 23 0
123 95 611 583 321 320 592 594 603 610 11 15 19 37 17 50 -4 18 -106 -80
-622 -593z"/>
<path d="M4596 550 c-284 -283 -522 -523 -527 -533 -8 -14 -5 -17 18 -17 23 0
108 81 511 483 266 265 492 494 503 510 11 15 19 37 17 50 -4 18 -89 -62 -522
-493z"/>
<path d="M4696 450 c-229 -228 -422 -423 -427 -432 -8 -15 -5 -18 18 -18 22 0
93 66 411 383 211 210 392 394 403 410 11 15 19 37 17 50 -4 18 -72 -45 -422
-393z"/>
<path d="M4796 350 c-174 -173 -322 -323 -327 -332 -8 -15 -5 -18 17 -18 23 0
80 52 312 282 156 156 293 295 303 311 11 15 19 37 17 50 -4 18 -54 -28 -322
-293z"/>
<path d="M4896 250 c-119 -118 -222 -223 -227 -232 -8 -15 -5 -18 17 -18 21 0
65 37 211 183 205 202 226 227 221 260 -3 19 -37 -11 -222 -193z"/>
<path d="M4996 150 c-136 -133 -149 -150 -111 -150 18 0 49 23 111 82 102 98
127 130 122 161 -3 19 -19 7 -122 -93z"/>
</g>
</svg>
